<?xml version="1.0" encoding="utf-8"?>
<!-- Generator: Adobe Illustrator 19.1.0, SVG Export Plug-In . SVG Version: 6.00 Build 0)  -->
<svg version="1.1" id="Capa_1" xmlns="http://www.w3.org/2000/svg" xmlns:xlink="http://www.w3.org/1999/xlink" x="0px" y="0px"
	 viewBox="0 0 68.6 80" style="enable-background:new 0 0 68.6 80;" xml:space="preserve">
<style type="text/css">
	.st0{fill-rule:evenodd;clip-rule:evenodd;fill:#333333;}
	.st1{clip-path:url(#SVGID_4_);}
	.st2{clip-path:url(#SVGID_6_);fill:#333333;}
	.st3{clip-path:url(#SVGID_8_);}
	.st4{clip-path:url(#SVGID_10_);fill:#333333;}
	.st5{clip-path:url(#SVGID_14_);}
	.st6{clip-path:url(#SVGID_16_);fill:#333333;}
	.st7{clip-path:url(#SVGID_18_);}
	.st8{clip-path:url(#SVGID_20_);fill:#FCEE21;}
	.st9{clip-path:url(#SVGID_22_);}
	.st10{clip-path:url(#SVGID_24_);fill:#333333;}
	.st11{fill:#333333;}
</style>
<g>
	<g>
		<defs>
			<rect id="SVGID_1_" x="-140.9" y="0.2" width="382.1" height="4705.8"/>
		</defs>
		<clipPath id="SVGID_2_">
			<use xlink:href="#SVGID_1_"  style="overflow:visible;"/>
		</clipPath>
	</g>
	<path class="st0" d="M7.5,14.4l-3.7,2.2c-0.2,0.1-0.3,0.4-0.1,0.6c0.1,0.2,0.4,0.3,0.6,0.1l3.7-2.2c0.2-0.1,0.3-0.4,0.1-0.6
		C7.9,14.3,7.7,14.3,7.5,14.4z"/>
</g>
<g>
	<defs>
		<path id="SVGID_3_" d="M7.3,11.1l-4.2-1.1c-0.2-0.1-0.5,0.1-0.5,0.3c-0.1,0.2,0.1,0.5,0.3,0.5L7.2,12c0.2,0.1,0.5-0.1,0.5-0.3
			C7.7,11.4,7.6,11.2,7.3,11.1z"/>
	</defs>
	<clipPath id="SVGID_4_">
		<use xlink:href="#SVGID_3_"  style="overflow:visible;"/>
	</clipPath>
	<g class="st1">
		<defs>
			<rect id="SVGID_5_" x="-140.9" y="0.2" width="382.1" height="4705.8"/>
		</defs>
		<clipPath id="SVGID_6_">
			<use xlink:href="#SVGID_5_"  style="overflow:visible;"/>
		</clipPath>
		<rect x="-3" y="3.4" transform="matrix(-0.9397 0.342 -0.342 -0.9397 13.7484 19.6401)" class="st2" width="16.4" height="15.3"/>
	</g>
</g>
<g>
	<defs>
		<path id="SVGID_7_" d="M12.9,8.5l1-4.2C14,4,13.8,3.8,13.6,3.7c-0.2-0.1-0.5,0.1-0.5,0.3l-1,4.2c-0.1,0.2,0.1,0.5,0.3,0.5
			C12.6,8.9,12.8,8.7,12.9,8.5z"/>
	</defs>
	<clipPath id="SVGID_8_">
		<use xlink:href="#SVGID_7_"  style="overflow:visible;"/>
	</clipPath>
	<g class="st3">
		<defs>
			<rect id="SVGID_9_" x="-140.9" y="0.2" width="382.1" height="4705.8"/>
		</defs>
		<clipPath id="SVGID_10_">
			<use xlink:href="#SVGID_9_"  style="overflow:visible;"/>
		</clipPath>
		
			<rect x="5.3" y="-1.9" transform="matrix(-0.9397 0.342 -0.342 -0.9397 27.2986 7.7481)" class="st4" width="15.2" height="16.5"/>
	</g>
</g>
<g>
	<g>
		<defs>
			<rect id="SVGID_11_" x="-140.9" y="0.2" width="382.1" height="4705.8"/>
		</defs>
		<clipPath id="SVGID_12_">
			<use xlink:href="#SVGID_11_"  style="overflow:visible;"/>
		</clipPath>
	</g>
</g>
<g>
	<defs>
		<path id="SVGID_13_" d="M9.3,9.4C9.5,9.2,9.6,9,9.4,8.8L7.2,5C7.1,4.8,6.8,4.8,6.6,4.9C6.4,5,6.3,5.3,6.4,5.5l2.2,3.7
			C8.8,9.4,9.1,9.5,9.3,9.4z"/>
	</defs>
	<clipPath id="SVGID_14_">
		<use xlink:href="#SVGID_13_"  style="overflow:visible;"/>
	</clipPath>
	<g class="st5">
		<defs>
			<rect id="SVGID_15_" x="-140.9" y="0.2" width="382.1" height="4705.8"/>
		</defs>
		<clipPath id="SVGID_16_">
			<use xlink:href="#SVGID_15_"  style="overflow:visible;"/>
		</clipPath>
		
			<rect x="1.1" y="-1.4" transform="matrix(-0.9397 0.342 -0.342 -0.9397 17.8213 11.1332)" class="st6" width="13.7" height="17.1"/>
	</g>
</g>
<g>
	<defs>
		<path id="SVGID_17_" d="M29.5,26.3c0,0-0.1,0-0.2,0c0,0-1.5,0.5-3.6,1.9c-1.8,1.1-2.8,2-3.1,2.3c-3.3-0.4-5.5-1.4-6.6-3.1
			l-1.3-2.1c-0.4-0.6-0.2-1.4,0.4-1.8c0.1-0.1,0.3-0.2,0.4-0.2l0.9,1.4c0.1,0.2,0.4,0.3,0.6,0.1c0.2-0.1,0.2-0.4,0.1-0.6l-6.7-10.7
			c-0.4-0.6-0.2-1.4,0.4-1.8c0.6-0.4,1.4-0.2,1.8,0.4l3.2,5.2c0,0,2.3,2.1,2.1,1.9l-0.4-0.7l-1-1.6c-0.4-0.6-0.2-1.4,0.4-1.8
			c0.6-0.4,1.4-0.2,1.8,0.4l1.6,2.5c0.1,0.2,0.4,0.3,0.6,0.1c0.2-0.1,0.2-0.4,0.1-0.6L19.5,15c-0.1-0.1-0.1-0.2-0.2-0.3
			c0.1-0.1,0.2-0.2,0.4-0.3c0.6-0.4,1.4-0.2,1.8,0.4l1.8,2.9c0.1,0.2,0.4,0.3,0.6,0.1c0.2-0.1,0.2-0.4,0.1-0.6l-1.6-2.5
			c0.1-0.1,0.2-0.2,0.3-0.3c0.6-0.4,1.4-0.2,1.8,0.4l2.6,4.2C29,21.9,29.8,24.7,29.5,26.3z"/>
	</defs>
	<clipPath id="SVGID_18_">
		<use xlink:href="#SVGID_17_"  style="overflow:visible;"/>
	</clipPath>
	<g class="st7">
		<defs>
			<rect id="SVGID_19_" x="-140.9" y="0.2" width="382.1" height="4705.8"/>
		</defs>
		<clipPath id="SVGID_20_">
			<use xlink:href="#SVGID_19_"  style="overflow:visible;"/>
		</clipPath>
		<rect x="7.2" y="3" transform="matrix(-0.9397 0.342 -0.342 -0.9397 46.218 31.435)" class="st8" width="26.2" height="33.6"/>
	</g>
</g>
<g>
	<defs>
		<path id="SVGID_21_" d="M51.1,48.3c-0.3,2-1.6,3.3-3.8,4.1c-0.9,0.3-2,0.5-2.9,0.5c-0.9-0.1-1.8-0.3-2.8-0.5l-5.4-14.9
			c1.1-2.3,2.8-3.9,5.1-4.7c2.1-0.8,3.8-0.5,5.1,1c1.3,1.6,2.2,2.9,3.5,6.5C51.3,44.4,51.4,46.3,51.1,48.3z M29.5,26.3
			c0,0-0.1,0-0.2,0c0,0-1.5,0.5-3.6,1.9c-1.8,1.1-2.8,2-3.1,2.3c-3.3-0.4-5.5-1.4-6.6-3.1l-1.3-2.1c-0.4-0.6-0.2-1.4,0.4-1.8
			c0.1-0.1,0.3-0.2,0.4-0.2l0.9,1.4c0.1,0.2,0.4,0.3,0.6,0.1c0.2-0.1,0.2-0.4,0.1-0.6l-6.7-10.7c-0.4-0.6-0.2-1.4,0.4-1.8
			c0.6-0.4,1.4-0.2,1.8,0.4l3.2,5.2l1.4,2.2c0,0,0.2,0.3,0.4,0c0.2-0.2,0.4-0.2,0.3-0.4l-0.4-0.7l-1-1.6c-0.4-0.6-0.2-1.4,0.4-1.8
			c0.6-0.4,1.4-0.2,1.8,0.4l1.6,2.5c0.1,0.2,0.4,0.3,0.6,0.1c0.2-0.1,0.2-0.4,0.1-0.6L19.5,15c-0.1-0.1-0.1-0.2-0.2-0.3
			c0.1-0.1,0.2-0.2,0.4-0.3c0.6-0.4,1.4-0.2,1.8,0.4l1.8,2.9c0.1,0.2,0.4,0.3,0.6,0.1c0.2-0.1,0.2-0.4,0.1-0.6l-1.6-2.5
			c0.1-0.1,0.2-0.2,0.3-0.3c0.6-0.4,1.4-0.2,1.8,0.4l2.6,4.2C29,21.9,29.8,24.7,29.5,26.3z M55.7,27.2c-2.2-2.2-4.7-3.6-7.4-4.3
			c-2.7-0.7-5.5-0.5-8.2,0.4c-3.7,1.4-6.3,3.4-7.5,5.9c0-0.1-0.1-0.2-0.2-0.3c0-0.1-0.1-0.2-0.2-0.4L31,26.8
			c-0.1-0.2-0.4-0.4-0.7-0.5c0.3-1.8-0.5-4.7-2.4-7.6l-2.6-4.2c-0.7-1-2-1.3-3-0.7c-0.2,0.1-0.3,0.2-0.4,0.3c-0.7-0.8-1.9-1-2.8-0.4
			c-0.2,0.1-0.4,0.3-0.6,0.6c-0.6-0.3-1.4-0.3-2.1,0.1c-0.4,0.3-0.7,0.6-0.9,1.1l-2.3-3.7c-0.7-1-2-1.3-3-0.7c-1,0.7-1.3,2-0.6,3
			l5.3,8.6c-0.1,0-0.3,0.1-0.4,0.2c-1,0.7-1.3,2-0.6,3l1.3,2.1c1.2,1.9,3.4,3,6.8,3.5c-0.1,0.3-0.1,0.7,0.1,1c0,0,1.5,2.4,1.6,2.5
			c0.2,0.3,0.3,0.6,0.4,0.8c0.2,0.5,0.7,1.8,1.5,3.9L40,79l8.9-6.3l-3.4-9.2c-0.2-0.5-0.3-1.1-0.5-1.6c-0.1-0.2-0.1-0.4-0.2-0.6
			c2.4,0.3,5.1,0,7.7-1c2.1-0.8,3.8-1.8,5.2-3.1c1.4-1.3,2.6-3.2,3.6-5.6c1-2.4,1.5-4.9,1.3-7.5c-0.1-2.6-0.5-4.6-1.9-8.6
			C59.2,31.3,57.8,29.4,55.7,27.2z"/>
	</defs>
	<clipPath id="SVGID_22_">
		<use xlink:href="#SVGID_21_"  style="overflow:visible;"/>
	</clipPath>
	<g class="st9">
		<defs>
			<rect id="SVGID_23_" x="-140.9" y="0.2" width="382.1" height="4705.8"/>
		</defs>
		<clipPath id="SVGID_24_">
			<use xlink:href="#SVGID_23_"  style="overflow:visible;"/>
		</clipPath>
		
			<rect x="14.3" y="-3.5" transform="matrix(-0.9397 0.342 -0.342 -0.9397 92.1498 62.5732)" class="st10" width="52.5" height="85.9"/>
	</g>
</g>
<path class="st0" d="M18.5,7.6l-3.7,2.2c-0.2,0.1-0.3,0.4-0.1,0.6c0.1,0.2,0.4,0.3,0.6,0.1L19,8.3c0.2-0.1,0.3-0.4,0.1-0.6
	C19,7.6,18.7,7.5,18.5,7.6z"/>
<circle class="st11" cx="17.7" cy="19.4" r="0.4"/>
</svg>
