<?xml version="1.0" encoding="utf-8"?>
<!-- Generator: Adobe Illustrator 19.1.0, SVG Export Plug-In . SVG Version: 6.00 Build 0)  -->
<svg version="1.1" id="Capa_1" xmlns="http://www.w3.org/2000/svg" xmlns:xlink="http://www.w3.org/1999/xlink" x="0px" y="0px"
	 viewBox="0 0 80 80" style="enable-background:new 0 0 80 80;" xml:space="preserve">
<path d="M68.9,73.7H11.1c-2.6,0-4.8-2.1-4.8-4.8V11.1c0-2.6,2.1-4.8,4.8-4.8h57.8c2.6,0,4.8,2.1,4.8,4.8v57.8
	C73.7,71.6,71.6,73.7,68.9,73.7z M11.1,8.8c-1.3,0-2.3,1-2.3,2.3v57.8c0,1.3,1,2.3,2.3,2.3h57.8c1.3,0,2.3-1,2.3-2.3V11.1
	c0-1.3-1-2.3-2.3-2.3H11.1z"/>
<g>
	<path d="M31.8,46.7L30,53.1h-5.9l7.7-25.2h7.5l7.8,25.2H41L39,46.7H31.8z M38.2,42.4L36.6,37c-0.4-1.5-0.9-3.4-1.3-4.9h-0.1
		c-0.4,1.5-0.7,3.4-1.2,4.9l-1.5,5.4H38.2z"/>
	<path d="M55.9,29.7c0,1.6-1.2,2.8-3.1,2.8c-1.8,0-3-1.3-3-2.8c0-1.6,1.2-2.9,3-2.9C54.7,26.9,55.9,28.1,55.9,29.7z M50.1,53.1V34.8
		h5.7v18.3H50.1z"/>
</g>
</svg>
