<?xml version="1.0" encoding="utf-8"?>
<!-- Generator: Adobe Illustrator 19.1.0, SVG Export Plug-In . SVG Version: 6.00 Build 0)  -->
<svg version="1.1" id="Capa_1" xmlns="http://www.w3.org/2000/svg" xmlns:xlink="http://www.w3.org/1999/xlink" x="0px" y="0px"
	 viewBox="0 0 42 42" style="enable-background:new 0 0 42 42;" xml:space="preserve">
<path d="M31.7,5H10.3C7.4,5,5,7.4,5,10.3v21.3c0,2.9,2.4,5.3,5.3,5.3h21.3c2.9,0,5.3-2.4,5.3-5.3V10.3C37,7.4,34.6,5,31.7,5z
	 M31.2,15.7c0,0.2,0,0.5,0,0.7c0,7.1-5.3,15.2-15,15.2c-3,0-5.7-0.9-8.1-2.4c0.4,0,0.8,0.1,1.3,0.1c2.5,0,4.7-0.9,6.5-2.3
	c-2.3,0-4.2-1.6-4.9-3.7c0.3,0.1,0.7,0.1,1,0.1c0.5,0,0.9-0.1,1.4-0.2c-2.4-0.5-4.2-2.7-4.2-5.2c0,0,0,0,0-0.1
	c0.7,0.4,1.5,0.6,2.4,0.7c-1.4-1-2.3-2.6-2.3-4.5c0-1,0.3-1.9,0.7-2.7c2.6,3.2,6.5,5.4,10.8,5.6c-0.1-0.4-0.1-0.8-0.1-1.2
	c0-3,2.4-5.3,5.3-5.3c1.5,0,2.9,0.6,3.8,1.7c1.2-0.2,2.3-0.7,3.3-1.3c-0.4,1.2-1.2,2.3-2.3,3c1.1-0.1,2.1-0.4,3-0.8
	C33.1,14,32.2,14.9,31.2,15.7z"/>
</svg>
