<?xml version="1.0" encoding="utf-8"?>
<!-- Generator: Adobe Illustrator 19.1.0, SVG Export Plug-In . SVG Version: 6.00 Build 0)  -->
<svg version="1.1" id="Capa_1" xmlns="http://www.w3.org/2000/svg" xmlns:xlink="http://www.w3.org/1999/xlink" x="0px" y="0px"
	 viewBox="26.5 -19 65 80" style="enable-background:new 26.5 -19 65 80;" xml:space="preserve">
<style type="text/css">
	.st0{fill:#FFFFFF;}
</style>
<g>
	<polygon points="38.7,50.4 34.2,-0.2 83.8,-0.2 79.3,50.4 59,56 	"/>
	<polygon points="59,51.7 75.4,47.1 79.3,3.9 59,3.9 	"/>
	<polygon class="st0" points="59,22.7 50.8,22.7 50.2,16.3 59,16.3 59,10.1 59,10.1 43.4,10.1 43.6,11.8 45.1,28.9 59,28.9 	"/>
	<polygon class="st0" points="59,38.8 59,38.8 52.1,36.9 51.6,32 48.3,32 45.4,32 46.3,41.7 59,45.3 59,45.3 	"/>
	<path d="M38.8-14H42v3.1h2.9V-14H48v9.4h-3.2v-3.2H42v3.2h-3.2V-14L38.8-14z"/>
	<path d="M52.2-10.9h-2.8V-14h8.7v3.1h-2.8v6.3h-3.2L52.2-10.9L52.2-10.9z"/>
	<path d="M59.5-14h3.3l2,3.3l2-3.3h3.3v9.4H67v-4.6l-2.2,3.4h-0.1l-2.2-3.4v4.7h-3.1L59.5-14L59.5-14z"/>
	<path d="M71.7-14h3.2v6.3h4.4v3.1h-7.6C71.7-4.6,71.7-14,71.7-14z"/>
	<polygon class="st0" points="59,22.7 59,28.9 66.6,28.9 65.9,36.9 59,38.8 59,45.3 71.7,41.7 71.8,40.7 73.3,24.3 73.4,22.7 
		71.7,22.7 	"/>
	<polygon class="st0" points="59,10.1 59,14 59,16.3 59,16.3 74,16.3 74,16.3 74,16.3 74.1,14.9 74.4,11.8 74.5,10.1 	"/>
</g>
</svg>
