<?xml version="1.0" encoding="utf-8"?>
<!-- Generator: Adobe Illustrator 19.1.0, SVG Export Plug-In . SVG Version: 6.00 Build 0)  -->
<svg version="1.1" id="Capa_1" xmlns="http://www.w3.org/2000/svg" xmlns:xlink="http://www.w3.org/1999/xlink" x="0px" y="0px"
	 viewBox="0 0 80 80" style="enable-background:new 0 0 80 80;" xml:space="preserve">
<path d="M68.9,73.7H11.1c-2.6,0-4.8-2.1-4.8-4.8V11.1c0-2.6,2.1-4.8,4.8-4.8h57.8c2.6,0,4.8,2.1,4.8,4.8v57.8
	C73.7,71.6,71.6,73.7,68.9,73.7z M11.1,8.8c-1.3,0-2.3,1-2.3,2.3v57.8c0,1.3,1,2.3,2.3,2.3h57.8c1.3,0,2.3-1,2.3-2.3V11.1
	c0-1.3-1-2.3-2.3-2.3H11.1z"/>
<g>
	<path d="M31.6,27.8v25.2h-5.7V27.8H31.6z"/>
	<path d="M54,26.5v21.1c0,2.1,0.1,4.2,0.1,5.5h-5.1l-0.3-2.7h-0.1c-1.2,2.1-3.4,3.1-5.7,3.1c-4.3,0-7.8-3.7-7.8-9.4
		c0-6.2,3.8-9.7,8.2-9.7c2.2,0,4,0.8,4.8,2.1h0.1v-9.9H54z M48.3,42.5c0-0.3,0-0.7-0.1-1c-0.3-1.5-1.6-2.8-3.3-2.8
		c-2.6,0-3.9,2.3-3.9,5.2c0,3.1,1.5,5.1,3.9,5.1c1.6,0,3-1.1,3.3-2.7c0.1-0.4,0.2-0.8,0.2-1.3V42.5z"/>
</g>
</svg>
