<?xml version="1.0" encoding="utf-8"?>
<!-- Generator: Adobe Illustrator 19.1.0, SVG Export Plug-In . SVG Version: 6.00 Build 0)  -->
<svg version="1.1" id="Capa_1" xmlns="http://www.w3.org/2000/svg" xmlns:xlink="http://www.w3.org/1999/xlink" x="0px" y="0px"
	 viewBox="0 0 123 250" style="enable-background:new 0 0 123 250;" xml:space="preserve">
<style type="text/css">
	.st0{clip-path:url(#SVGID_2_);}
	.st1{clip-path:url(#SVGID_4_);enable-background:new    ;}
	.st2{clip-path:url(#SVGID_6_);}
	.st3{clip-path:url(#SVGID_8_);}
	.st4{clip-path:url(#SVGID_10_);fill:#363636;}
	.st5{clip-path:url(#SVGID_12_);}
	.st6{clip-path:url(#SVGID_14_);fill:#FFFFFF;}
	.st7{clip-path:url(#SVGID_16_);}
	.st8{clip-path:url(#SVGID_18_);fill:#F7EC41;}
	.st9{clip-path:url(#SVGID_20_);}
	.st10{clip-path:url(#SVGID_22_);fill:#363636;}
	.st11{clip-path:url(#SVGID_24_);}
	.st12{clip-path:url(#SVGID_26_);fill:#363636;}
	.st13{clip-path:url(#SVGID_28_);}
	.st14{clip-path:url(#SVGID_30_);fill:#363636;}
	.st15{clip-path:url(#SVGID_32_);}
	.st16{clip-path:url(#SVGID_34_);enable-background:new    ;}
	.st17{clip-path:url(#SVGID_36_);}
	.st18{clip-path:url(#SVGID_38_);}
	.st19{clip-path:url(#SVGID_40_);fill:#363636;}
	.st20{fill-rule:evenodd;clip-rule:evenodd;fill:#363636;}
	.st21{clip-path:url(#SVGID_42_);}
	.st22{clip-path:url(#SVGID_44_);fill:#363636;}
	.st23{clip-path:url(#SVGID_46_);}
	.st24{clip-path:url(#SVGID_48_);fill:#363636;}
</style>
<g>
	<g>
		<defs>
			<polyline id="SVGID_1_" points="106.5,2.5 19.3,2.5 19.3,247.5 106.5,247.5 			"/>
		</defs>
		<clipPath id="SVGID_2_">
			<use xlink:href="#SVGID_1_"  style="overflow:visible;"/>
		</clipPath>
		<g class="st0">
			<defs>
				<rect id="SVGID_3_" x="-586.9" y="-103.6" width="1046.7" height="1908"/>
			</defs>
			<clipPath id="SVGID_4_">
				<use xlink:href="#SVGID_3_"  style="overflow:visible;"/>
			</clipPath>
			<g class="st1">
				<g>
					<defs>
						<rect id="SVGID_5_" x="19.3" y="129.7" width="87.2" height="117.8"/>
					</defs>
					<clipPath id="SVGID_6_">
						<use xlink:href="#SVGID_5_"  style="overflow:visible;"/>
					</clipPath>
					<g class="st2">
						<defs>
							<path id="SVGID_7_" d="M26.8,151.4c19.3-0.4,37.6-18.5,38.3-18.6c2-2.4,5.7-2.8,7.9-2.3c14.6,4.5,28.9,29.9,32.7,38.4
								c1.9,4.3,0.1,8.9-4.1,11.5c-1.4,0.9-2.9,1-3.6,1.1c-2.9,0.3-6.1-1.6-7.1-4.5c-2.7-4.9-5.5-10.6-8.9-15.5l-0.5,33.5l19.4,39.7
								c1.9,4.3,0.1,8.9-4.1,11.5c-1.4,0.9-2.9,1-3.6,1.1c-2.9,0.3-6.1-1.6-7.1-4.5L60,198.5l-13.5,10.4l-0.3,27.5
								c-0.3,4.5-3.6,8.5-8.9,8.3c-4.5-0.3-8.5-3.6-8.3-8.9l0.6-32c-0.3-2.9,1-5.3,3-7L50.8,184L45.9,165c-7.1,2.9-9.9,4-18.1,4.1
								c-4.5-0.3-8.5-3.6-8.2-8.1C18.3,155.2,22.3,151.1,26.8,151.4"/>
						</defs>
						<clipPath id="SVGID_8_">
							<use xlink:href="#SVGID_7_"  style="overflow:visible;"/>
						</clipPath>
						<g class="st3">
							<defs>
								<rect id="SVGID_9_" x="19.3" y="1.8" width="87.2" height="245.7"/>
							</defs>
							<clipPath id="SVGID_10_">
								<use xlink:href="#SVGID_9_"  style="overflow:visible;"/>
							</clipPath>
							<rect x="15.7" y="126.7" class="st4" width="94.4" height="124.4"/>
						</g>
					</g>
				</g>
			</g>
		</g>
	</g>
	<g>
		<defs>
			<path id="SVGID_11_" d="M42.4,136.5C42.4,135.7,43.1,135.7,42.4,136.5c0.7-0.8,7.1-2.9,17.4-4.7c9.5-1.7,14.7-1.4,16.9-1.6
				c10.1-10.6,13.7-19.9,12.1-28.7l-1.7-10.2c-0.3-2.9-3.5-5.6-6.4-4.6c-0.7,0.1-1.5,0.1-2.1,0.9l1.4,7.3c0.1,0.7-0.6,1.5-1.3,2.4
				c-0.7,0.8-1.5-0.6-2.3-1.3l-9-54.1c-0.3-2.9-3.5-5.6-6.4-4.6c-2.9,0.3-4.9,3.4-4.6,6.4l4,25.6l1,2.9l2.3,8.7l-0.6,1.5
				c0.1,0.7-1.4,0.9-2.1,0.9c-0.7,0.1-2.8-5.7-2.8-5.7l-1.5-8c-0.3-2.9-3.4-4.9-6.4-4.6c-2.9,0.3-5.6,3.5-4.6,6.4l2,12.4
				c0.1,0.7-0.6,1.5-1.3,2.3c-0.7,0.1-1.5-0.6-2.3-1.3l-2-13.2L42,70.4c-0.7,0.1-1.5,0.1-2.2,0.2c-2.9,0.3-4.9,3.4-4.6,6.4l2.2,14.7
				c0.1,0.7-0.6,1.5-1.3,2.4c-0.7,0.8-1.5-0.6-2.3-1.3l-1.9-12.4c-0.7,0.1-1.5,0.1-2.2,0.2C26.6,80.8,24,84,25,86.9l3.5,21.2
				C31.2,120.5,36.9,132.6,42.4,136.5"/>
		</defs>
		<clipPath id="SVGID_12_">
			<use xlink:href="#SVGID_11_"  style="overflow:visible;"/>
		</clipPath>
		<g class="st5">
			<defs>
				<rect id="SVGID_13_" x="-586.9" y="-103.6" width="1046.7" height="1908"/>
			</defs>
			<clipPath id="SVGID_14_">
				<use xlink:href="#SVGID_13_"  style="overflow:visible;"/>
			</clipPath>
			<rect x="21.2" y="33.5" class="st6" width="71.6" height="106.7"/>
		</g>
	</g>
	<g>
		<defs>
			<path id="SVGID_15_" d="M40.1,136.7C40,136,40.7,135.9,40.1,136.7c0.7-0.8,7.1-2.9,17.4-4.7c9.5-1.7,14.7-1.4,16.9-1.6
				c10.1-10.6,13.7-19.9,12.1-28.7l-1.7-10.2c-0.3-2.9-3.5-5.6-6.4-4.6c-0.7,0.1-1.5,0.1-2.1,0.9l1.4,7.3c0.1,0.7-0.6,1.5-1.3,2.4
				c-0.7,0.8-1.5-0.6-2.3-1.3l-9-54.1c-0.3-2.9-3.5-5.6-6.4-4.6c-2.9,0.3-4.9,3.4-4.6,6.4l4,25.6l1,2.9l2.3,8.7l-0.6,1.5
				c0.1,0.7-1.4,0.9-2.1,0.9c-0.7,0.1-1.9-0.7-2-1.5l-0.8-4.2l-1.5-8c-0.3-2.9-3.4-4.9-6.4-4.6c-2.9,0.3-5.6,3.5-4.6,6.4l2,12.4
				c0.1,0.7-0.6,1.5-1.3,2.3c-0.7,0.1-1.5-0.6-2.3-1.3l-2-13.2c-0.1-0.7-0.1-0.7-0.1-1.5c-0.7,0.1-1.5,0.1-2.2,0.2
				c-2.9,0.3-4.9,3.4-4.6,6.4L35,91.9c0.1,0.7-0.6,1.5-1.3,2.4c-0.7,0.8-1.5-0.6-2.3-1.3l-1.9-12.4c-0.7,0.1-1.5,0.1-2.2,0.2
				c-2.9,0.3-5.6,3.5-4.6,6.4l3.5,21.2C28.9,120.7,34.5,132.8,40.1,136.7"/>
		</defs>
		<clipPath id="SVGID_16_">
			<use xlink:href="#SVGID_15_"  style="overflow:visible;"/>
		</clipPath>
		<g class="st7">
			<defs>
				<rect id="SVGID_17_" x="-586.9" y="-103.6" width="1046.7" height="1908"/>
			</defs>
			<clipPath id="SVGID_18_">
				<use xlink:href="#SVGID_17_"  style="overflow:visible;"/>
			</clipPath>
			<rect x="18.8" y="33.7" class="st8" width="71.6" height="106.7"/>
		</g>
	</g>
	<g>
		<defs>
			<path id="SVGID_19_" d="M41.2,154.4c-11.5-4.1,46-0.7,45.8-2.2c-0.1-0.7-1-2.1-1.1-3.6l-2-12.4c-0.1-1.5-1-2.9-2.6-3.5
				c9.3-11.3,13.5-21.4,11.9-30.9l-1.7-10.2c-0.5-5.2-5.3-8.4-10.4-7.9c-0.7,0.1-1.5,0.1-2.2,0.2l-7.2-43.2
				c-0.5-5.1-5.3-8.4-10.4-7.9c-5.2,0.5-8.4,5.3-7.9,10.4l3.3,18.3c-2.3-0.5-3.8-1.1-6-0.9c-2.9,1-5.7,2.8-6.9,5.9
				c-1.5-0.6-2.3-0.5-3.7-0.4c-5.2,0.5-7.7,4.5-8,9c-0.7,0.1-1.5,0.1-2.2,0.2c-5.2,0.5-8.4,5.3-7.9,10.4l3.5,21.2
				c2.2,14.7,7.8,26.7,14.2,31.3c-0.6,1.5-0.5,2.3-0.4,3.8l1.7,9.5c0.1,0.7,0.1,0.7,0.1,1.5C41.1,153.7,41.1,153.7,41.2,154.4
				 M42.4,136.5c-5.6-3.9-11.2-16-13.9-28.4L25,86.9c-1-2.9,1.6-6.1,4.6-6.4c0.7-0.1,1.5-0.1,2.2-0.2l1.9,12.4
				c0.8,0.7,1.7,2.1,2.3,1.3c0.7-0.8,1.3-1.6,1.3-2.4L35.2,77c-0.3-2.9,1.6-6.1,4.6-6.4c0.7-0.1,1.5-0.1,2.2-0.2l0.1,1.5l2,13.2
				c0.8,0.7,1.6,1.3,2.3,1.3c0.7-0.8,1.3-1.6,1.3-2.3l-2-12.4c-1-2.9,1.6-6.1,4.6-6.4c2.9-0.3,6.1,1.6,6.4,4.6l2.3,12.6
				c0,0,3.5,0.4,3.5-0.3l-6.1-38.3c-0.3-2.9,1.6-6.1,4.6-6.4c2.9-1,6.1,1.6,6.4,4.6l9,54.1c0.8,0.7,1.7,2.1,2.3,1.3
				c0.7-0.8,1.3-1.6,1.3-2.4l-1.4-7.3c0.7-0.8,1.4-0.9,2.1-0.9c2.9-1,6.1,1.6,6.4,4.6l1.7,10.2c1.6,8.8-2,18-12.1,28.7
				c-2.2,0.2-7.4,0-16.9,1.6C49.6,133.6,43.1,135.7,42.4,136.5C43.1,135.7,42.4,135.7,42.4,136.5"/>
		</defs>
		<clipPath id="SVGID_20_">
			<use xlink:href="#SVGID_19_"  style="overflow:visible;"/>
		</clipPath>
		<g class="st9">
			<defs>
				<rect id="SVGID_21_" x="-586.9" y="-103.6" width="1046.7" height="1908"/>
			</defs>
			<clipPath id="SVGID_22_">
				<use xlink:href="#SVGID_21_"  style="overflow:visible;"/>
			</clipPath>
			<rect x="18.2" y="29.1" class="st10" width="79" height="128.9"/>
		</g>
	</g>
	<g>
		<defs>
			<path id="SVGID_23_" d="M70.5,24.6L81.1,9.1c0.5-0.8,1.7-1.1,2.6-0.4c0.8,0.5,1.1,1.7,0.4,2.6L73.5,26.8
				c-0.5,0.9-1.7,1.1-2.6,0.4C70.3,26.6,70,25.4,70.5,24.6"/>
		</defs>
		<clipPath id="SVGID_24_">
			<use xlink:href="#SVGID_23_"  style="overflow:visible;"/>
		</clipPath>
		<g class="st11">
			<defs>
				<rect id="SVGID_25_" x="-586.9" y="-103.6" width="1046.7" height="1908"/>
			</defs>
			<clipPath id="SVGID_26_">
				<use xlink:href="#SVGID_25_"  style="overflow:visible;"/>
			</clipPath>
			<rect x="66.6" y="4.6" class="st12" width="21.5" height="26.6"/>
		</g>
	</g>
	<g>
		<defs>
			<path id="SVGID_27_" d="M45.1,32.1L29.5,21.5c-0.8-0.5-1.1-1.7-0.4-2.6c0.5-0.9,1.7-1.1,2.6-0.4l15.5,10.6
				c0.8,0.5,1.1,1.7,0.4,2.6C47.1,32.5,46,32.8,45.1,32.1"/>
		</defs>
		<clipPath id="SVGID_28_">
			<use xlink:href="#SVGID_27_"  style="overflow:visible;"/>
		</clipPath>
		<g class="st13">
			<defs>
				<rect id="SVGID_29_" x="-586.9" y="-103.6" width="1046.7" height="1908"/>
			</defs>
			<clipPath id="SVGID_30_">
				<use xlink:href="#SVGID_29_"  style="overflow:visible;"/>
			</clipPath>
			<rect x="25.1" y="14.5" class="st14" width="26.6" height="21.6"/>
		</g>
	</g>
	<g>
		<defs>
			<polyline id="SVGID_31_" points="106.5,2.5 19.3,2.5 19.3,247.5 106.5,247.5 			"/>
		</defs>
		<clipPath id="SVGID_32_">
			<use xlink:href="#SVGID_31_"  style="overflow:visible;"/>
		</clipPath>
		<g class="st15">
			<defs>
				<rect id="SVGID_33_" x="-586.9" y="-103.6" width="1046.7" height="1908"/>
			</defs>
			<clipPath id="SVGID_34_">
				<use xlink:href="#SVGID_33_"  style="overflow:visible;"/>
			</clipPath>
			<g class="st16">
				<g>
					<defs>
						<rect id="SVGID_35_" x="52.7" y="1.8" width="8.7" height="23.3"/>
					</defs>
					<clipPath id="SVGID_36_">
						<use xlink:href="#SVGID_35_"  style="overflow:visible;"/>
					</clipPath>
					<g class="st17">
						<defs>
							<path id="SVGID_37_" d="M59.2,24.5c-1,0.2-2.1-0.4-2.3-1.4L53.4,4.7c-0.2-1,0.7-2,1.7-2.2c1-0.2,2.1,0.4,2.3,1.4l3.6,18.4
								C61.1,23.3,60.2,24.3,59.2,24.5"/>
						</defs>
						<clipPath id="SVGID_38_">
							<use xlink:href="#SVGID_37_"  style="overflow:visible;"/>
						</clipPath>
						<g class="st18">
							<defs>
								<rect id="SVGID_39_" x="19.3" y="1.8" width="87.2" height="245.7"/>
							</defs>
							<clipPath id="SVGID_40_">
								<use xlink:href="#SVGID_39_"  style="overflow:visible;"/>
							</clipPath>
							<rect x="49.7" y="-1.1" class="st19" width="14.8" height="29.3"/>
						</g>
					</g>
				</g>
			</g>
		</g>
	</g>
	<circle class="st20" cx="60.9" cy="82.1" r="1.7"/>
	<g>
		<defs>
			<path id="SVGID_41_" d="M98.4,35.2l-18.4,3.5c-1,0.2-2-0.4-2.1-1.5c-0.2-1,0.4-2,1.5-2.1l18.4-3.5c1-0.2,2,0.4,2.1,1.5
				C100.1,34,99.5,35,98.4,35.2"/>
		</defs>
		<clipPath id="SVGID_42_">
			<use xlink:href="#SVGID_41_"  style="overflow:visible;"/>
		</clipPath>
		<g class="st21">
			<defs>
				
					<rect id="SVGID_43_" x="76.8" y="-263.4" transform="matrix(0.7071 -0.7071 0.7071 0.7071 -312.5783 626.6794)" width="1046.7" height="1908"/>
			</defs>
			<clipPath id="SVGID_44_">
				<use xlink:href="#SVGID_43_"  style="overflow:visible;"/>
			</clipPath>
			
				<rect x="75.6" y="24.3" transform="matrix(0.7071 -0.7071 0.7071 0.7071 1.2177 73.1041)" class="st22" width="26.6" height="21.6"/>
		</g>
	</g>
	<g>
		<defs>
			<path id="SVGID_45_" d="M43.3,45.7l-18.4,3.5c-1,0.2-2-0.4-2.1-1.5c-0.2-1,0.4-2,1.5-2.1L42.7,42c1-0.2,2,0.4,2.1,1.5
				C45.1,44.5,44.4,45.5,43.3,45.7"/>
		</defs>
		<clipPath id="SVGID_46_">
			<use xlink:href="#SVGID_45_"  style="overflow:visible;"/>
		</clipPath>
		<g class="st23">
			<defs>
				
					<rect id="SVGID_47_" x="21.8" y="-252.9" transform="matrix(0.7071 -0.7071 0.7071 0.7071 -336.1223 590.8159)" width="1046.7" height="1908"/>
			</defs>
			<clipPath id="SVGID_48_">
				<use xlink:href="#SVGID_47_"  style="overflow:visible;"/>
			</clipPath>
			
				<rect x="20.5" y="34.7" transform="matrix(0.7071 -0.7071 0.7071 0.7071 -22.3263 37.2406)" class="st24" width="26.6" height="21.6"/>
		</g>
	</g>
</g>
</svg>
