<?xml version="1.0" encoding="utf-8"?>
<!-- Generator: Adobe Illustrator 19.1.0, SVG Export Plug-In . SVG Version: 6.00 Build 0)  -->
<svg version="1.1" id="Capa_1" xmlns="http://www.w3.org/2000/svg" xmlns:xlink="http://www.w3.org/1999/xlink" x="0px" y="0px"
	 viewBox="0 0 65 80" style="enable-background:new 0 0 65 80;" xml:space="preserve">
<style type="text/css">
	.st0{enable-background:new    ;}
	.st1{fill:#FFFFFF;}
	.st2{fill:#FBFBFA;}
	.st3{fill:#F8F8F7;}
</style>
<g>
	<g id="形状_1_19_" class="st0">
		<g id="形状_1">
			<g>
				<polygon points="7.5,18.8 12.2,69.5 32.5,75 52.8,69.5 57.5,18.8 				"/>
			</g>
		</g>
	</g>
	<g id="形状_1_18_" class="st0">
		<g id="形状_1_1_">
			<g>
				<polygon points="32.5,22.9 32.5,70.6 32.5,70.7 49,66.2 52.8,22.9 				"/>
			</g>
		</g>
	</g>
	<g id="形状_1_17_" class="st0">
		<g id="形状_1_2_">
			<g>
				<polygon class="st1" points="32.4,57.7 32.4,57.7 25.6,55.9 25.2,51 18.9,51 19.8,60.6 32.5,64.4 32.5,57.6 				"/>
			</g>
		</g>
	</g>
	<g id="形状_1_16_" class="st0">
		<g id="形状_1_3_">
			<g>
				<polygon class="st2" points="32.5,41.6 32.5,47.7 32.5,47.7 40.1,47.7 39.6,55.7 32.5,57.6 32.5,57.7 32.5,64.4 32.5,64.4 
					32.5,64.4 45.3,60.6 47,41.6 				"/>
			</g>
		</g>
	</g>
	<g id="形状_1_15_" class="st0">
		<g id="形状_1_4_">
			<g>
				<polygon class="st1" points="18,41.6 18.5,47.7 18.5,47.7 32.5,47.7 32.5,41.6 				"/>
			</g>
		</g>
	</g>
	<g id="形状_1_14_" class="st0">
		<g id="形状_1_5_">
			<g>
				<polygon class="st1" points="18,41.6 32.5,41.6 32.5,41.5 32.5,35.5 				"/>
			</g>
		</g>
	</g>
	<g id="形状_1_13_" class="st0">
		<g id="形状_1_6_">
			<g>
				<polygon class="st1" points="33.3,35.2 32.5,35.5 32.5,41.6 47.4,35.2 				"/>
			</g>
		</g>
	</g>
	<g id="形状_1_12_" class="st0">
		<g id="形状_1_7_">
			<g>
				<polygon class="st1" points="16.7,29 17.5,35.2 32.5,35.2 32.5,29 				"/>
			</g>
		</g>
	</g>
	<g id="形状_1_11_" class="st0">
		<g id="形状_1_8_">
			<g>
				<path class="st3" d="M32.5,35.2L48,29H32.5V35.2z M32.5,35.2h14.9L48,29L32.5,35.2z"/>
			</g>
		</g>
	</g>
	<g id="形状_1_10_" class="st0">
		<g id="形状_1_9_">
			<g>
				<path d="M17.7,14.3h7.7v-3H21v-3h4.4V5h-7.7V14.3z M28.7,8.3c1,1,1.6,1.5,3.1,3c-0.9,0-3.1,0-3.1,0v3h7.7v-3l-3.1-3h3.1V5h-7.7
					C28.7,5,28.7,6.7,28.7,8.3z M47.3,5h-7.7c0,0,0,1.7,0,3.3c1,1,1.6,1.5,3.1,3c-0.9,0-3.1,0-3.1,0v3h7.7v-3l-3.1-3h3.1V5z"/>
			</g>
		</g>
	</g>
</g>
</svg>
