<?xml version="1.0" encoding="utf-8"?>
<!-- Generator: Adobe Illustrator 19.1.0, SVG Export Plug-In . SVG Version: 6.00 Build 0)  -->
<svg version="1.1" id="Capa_1" xmlns="http://www.w3.org/2000/svg" xmlns:xlink="http://www.w3.org/1999/xlink" x="0px" y="0px"
	 viewBox="0 0 42 42" style="enable-background:new 0 0 42 42;" xml:space="preserve">
<path d="M13.2,28.7c0,0.8,0.7,1.3,2.1,1.3c1.3,0,1.9-0.4,1.9-1.3c0-0.8-0.7-1.2-2-1.2C13.9,27.4,13.2,27.9,13.2,28.7z M31.7,5H10.3
	C7.4,5,5,7.4,5,10.3v21.3c0,2.9,2.4,5.3,5.3,5.3h21.3c2.9,0,5.3-2.4,5.3-5.3V10.3C37,7.4,34.6,5,31.7,5z M19.9,17.8
	c-0.2,0.1-0.6,0.2-1,0.3c0.1,0.4,0.2,0.7,0.2,1c0,1-0.3,1.9-0.9,2.7c-0.6,0.8-1.4,1.2-2.4,1.4c-0.7,0.1-1,0.4-1,1
	c0,0.2,0.1,0.4,0.3,0.6c0.3,0.3,0.7,0.5,1.2,0.6c2.3,0.4,3.5,1.3,3.5,2.9c0,2.5-1.5,3.8-4.5,3.8c-1.2,0-2.3-0.2-3-0.7
	c-1-0.6-1.5-1.4-1.5-2.6c0-1.4,0.8-2.3,2.3-2.8v0c-0.6-0.3-0.8-0.9-0.8-1.6c0-0.9,0.3-1.5,0.8-1.7v0c-0.5-0.2-1-0.6-1.4-1.2
	c-0.5-0.7-0.7-1.4-0.7-2.2c0-1.2,0.4-2.1,1.2-2.9c0.8-0.7,1.7-1.1,2.9-1.1c0.8,0,1.5,0.2,2.2,0.6c0.8,0,1.7-0.2,2.7-0.6V17.8
	L19.9,17.8z M23.8,26.2h-2.8c0-0.3,0-0.9,0-1.7V17c0-0.8,0-1.3,0-1.6h2.8c0,0.3,0,0.8,0,1.5v7.5C23.8,25.2,23.8,25.8,23.8,26.2z
	 M23.6,13c-0.3,0.4-0.7,0.5-1.2,0.5c-0.5,0-0.9-0.2-1.2-0.5c-0.3-0.4-0.5-0.8-0.5-1.3c0-0.5,0.2-0.9,0.5-1.3
	c0.3-0.4,0.7-0.5,1.2-0.5c0.5,0,0.8,0.2,1.2,0.5c0.3,0.4,0.5,0.8,0.5,1.3C24.1,12.2,24,12.6,23.6,13z M31.3,25.9
	c-0.6,0.3-1.3,0.5-2.2,0.5c-1.2,0-2-0.4-2.5-1.3c-0.3-0.6-0.5-1.6-0.5-3v-4.4h0v0l-0.4,0c-0.2,0-0.5,0-0.8,0.1v-2.4h1.2v-1
	c0-0.5,0-0.8-0.1-1.1h2.8c0,0.3-0.1,0.7-0.1,1v1H31v2.4c-0.1,0-0.2,0-0.5,0c-0.2,0-0.4,0-0.6,0h-1v4.5c0,1.1,0.4,1.6,1.1,1.6
	c0.5,0,1-0.1,1.4-0.4V25.9L31.3,25.9z M15,17.5c-1,0-1.5,0.6-1.5,1.8c0,1.1,0.5,1.7,1.5,1.7c1,0,1.5-0.6,1.5-1.7
	c0-0.5-0.1-0.9-0.3-1.2C15.9,17.7,15.5,17.5,15,17.5z"/>
</svg>
