<?xml version="1.0" encoding="utf-8"?>
<!-- Generator: Adobe Illustrator 19.1.0, SVG Export Plug-In . SVG Version: 6.00 Build 0)  -->
<svg version="1.1" id="Capa_1" xmlns="http://www.w3.org/2000/svg" xmlns:xlink="http://www.w3.org/1999/xlink" x="0px" y="0px"
	 viewBox="0 0 80 80" style="enable-background:new 0 0 80 80;" xml:space="preserve">
<path d="M68.9,73.7H11.1c-2.6,0-4.8-2.1-4.8-4.8V11.1c0-2.6,2.1-4.8,4.8-4.8h57.8c2.6,0,4.8,2.1,4.8,4.8v57.8
	C73.7,71.6,71.6,73.7,68.9,73.7z M11.1,8.8c-1.3,0-2.3,1-2.3,2.3v57.8c0,1.3,1,2.3,2.3,2.3h57.8c1.3,0,2.3-1,2.3-2.3V11.1
	c0-1.3-1-2.3-2.3-2.3H11.1z"/>
<g>
	<path d="M23.2,27.6c1.8-0.3,4.2-0.5,7.7-0.5c3.5,0,6,0.7,7.7,2c1.6,1.3,2.7,3.4,2.7,5.8c0,2.5-0.8,4.6-2.3,6
		c-1.9,1.8-4.8,2.7-8.2,2.7c-0.7,0-1.4,0-1.9-0.1v9h-5.7V27.6z M28.9,39.1c0.5,0.1,1.1,0.1,1.9,0.1c3,0,4.9-1.5,4.9-4.1
		c0-2.3-1.6-3.7-4.5-3.7c-1.2,0-1.9,0.1-2.4,0.2V39.1z"/>
	<path d="M44,47.5c1,0.6,3.2,1.4,4.9,1.4c1.7,0,2.4-0.6,2.4-1.5s-0.6-1.4-2.7-2.1c-3.8-1.3-5.2-3.3-5.2-5.5c0-3.4,2.9-6,7.5-6
		c2.1,0,4,0.5,5.2,1l-1,3.9c-0.8-0.4-2.4-1-4-1c-1.4,0-2.2,0.6-2.2,1.5c0,0.9,0.7,1.3,3,2.1c3.5,1.2,4.9,3,5,5.7
		c0,3.4-2.7,5.9-7.9,5.9c-2.4,0-4.5-0.5-5.9-1.3L44,47.5z"/>
</g>
</svg>
